<svg id="visual" viewBox="0 0 900 600" width="900" height="600" xmlns="http://www.w3.org/2000/svg" xmlns:xlink="http://www.w3.org/1999/xlink" version="1.1"><rect x="0" y="0" width="900" height="600" fill="#001220"></rect><defs><linearGradient id="grad1_0" x1="33.3%" y1="0%" x2="100%" y2="100%"><stop offset="20%" stop-color="#001220" stop-opacity="1"></stop><stop offset="80%" stop-color="#001220" stop-opacity="1"></stop></linearGradient></defs><defs><linearGradient id="grad2_0" x1="0%" y1="0%" x2="66.7%" y2="100%"><stop offset="20%" stop-color="#001220" stop-opacity="1"></stop><stop offset="80%" stop-color="#001220" stop-opacity="1"></stop></linearGradient></defs><g transform="translate(900, 0)"><path d="M0 486.7C-67.3 483.1 -134.6 479.4 -186.3 449.7C-237.9 420 -274 364.3 -318.2 318.2C-362.4 272.1 -414.9 235.5 -444.4 184.1C-473.8 132.6 -480.3 66.3 -486.7 0L0 0Z" fill="#FBAE3C"></path></g><g transform="translate(0, 600)"><path d="M0 -486.7C52.3 -445.7 104.5 -404.6 156.9 -378.8C209.3 -353 261.7 -342.5 314.7 -314.7C367.6 -286.8 420.9 -241.6 449.7 -186.3C478.5 -130.9 482.6 -65.5 486.7 0L0 0Z" fill="#FBAE3C"></path></g></svg>